<svg xmlns="http://www.w3.org/2000/svg" width="24" height="24" viewBox="0 0 24 24">
    <defs>
        <filter id="eolxd6u5ha">
            <feColorMatrix in="SourceGraphic" values="0 0 0 0 1.000000 0 0 0 0 1.000000 0 0 0 0 1.000000 0 0 0 1.000000 0"/>
        </filter>
    </defs>
    <g fill="none" fill-rule="evenodd">
        <g filter="url(#eolxd6u5ha)">
            <path fill-rule="nonzero" stroke="#FFF" stroke-width="2" d="M20.571 22c.786 0 1.429-.647 1.429-1.442V3.442C22 2.647 21.357 2 20.571 2H3.424C2.638 2 2 2.647 2 3.442v17.116C2 21.353 2.638 22 3.424 22h17.147z"/>
            <path fill="#FFF" fill-rule="nonzero" d="M6.766 8.184c-.915 0-1.654-.744-1.654-1.655 0-.91.74-1.654 1.654-1.654.911 0 1.655.743 1.655 1.654 0 .916-.74 1.655-1.655 1.655zM12.838 18.625H9.985V9.438h2.737v1.255h.039c.382-.722 1.314-1.482 2.702-1.482 2.888 0 3.425 1.903 3.425 4.378v5.036h-2.853v-4.469c0-1.065-.022-2.436-1.483-2.436-1.486 0-1.714 1.16-1.714 2.359v4.546zM8.197 18.625L5.34 18.625 5.34 9.438 8.197 9.438z"/>
        </g>
    </g>
</svg>
