<svg xmlns="http://www.w3.org/2000/svg" width="24" height="24" viewBox="0 0 24 24">
    <defs>
        <filter id="vd38liw9wa">
            <feColorMatrix in="SourceGraphic" values="0 0 0 0 1.000000 0 0 0 0 1.000000 0 0 0 0 1.000000 0 0 0 1.000000 0"/>
        </filter>
    </defs>
    <g fill="none" fill-rule="evenodd">
        <g filter="url(#vd38liw9wa)">
            <path fill="#FFF" fill-rule="nonzero" d="M20.25 21.375c.756 0 1.375-.623 1.375-1.388V3.513c0-.765-.619-1.388-1.375-1.388H3.746c-.757 0-1.371.623-1.371 1.388v16.474c0 .765.614 1.388 1.37 1.388H20.25zM6.766 8.184c-.915 0-1.654-.744-1.654-1.655 0-.91.74-1.654 1.654-1.654.911 0 1.655.743 1.655 1.654 0 .916-.74 1.655-1.655 1.655zm6.072 10.441H9.985V9.438h2.737v1.255h.039c.382-.722 1.314-1.482 2.702-1.482 2.888 0 3.425 1.903 3.425 4.378v5.036h-2.853v-4.469c0-1.065-.022-2.436-1.483-2.436-1.486 0-1.714 1.16-1.714 2.359v4.546zm-4.64 0H5.34V9.438h2.857v9.187z"/>
        </g>
    </g>
</svg>
